<svg width="24" height="24" viewBox="0 0 24 24" fill="none" xmlns="http://www.w3.org/2000/svg">
<path d="M19.5787 20.2502H4.42129C4.23671 20.2502 4.05862 20.1822 3.92109 20.0591C3.78356 19.936 3.69625 19.7665 3.67587 19.5831L2.34254 7.58307C2.33089 7.47823 2.34149 7.37212 2.37363 7.27166C2.40578 7.1712 2.45876 7.07865 2.52911 7.00005C2.59945 6.92146 2.68559 6.85858 2.78188 6.81554C2.87818 6.77249 2.98247 6.75024 3.08795 6.75024H20.9121C21.0175 6.75024 21.1218 6.77249 21.2181 6.81554C21.3144 6.85858 21.4006 6.92146 21.4709 7.00005C21.5412 7.07865 21.5942 7.1712 21.6264 7.27166C21.6585 7.37212 21.6691 7.47823 21.6575 7.58307L20.3241 19.5831C20.3038 19.7665 20.2164 19.936 20.0789 20.0591C19.9414 20.1822 19.7633 20.2502 19.5787 20.2502Z" stroke="white" stroke-width="1.5" stroke-linecap="round" stroke-linejoin="round"/>
<path d="M8.25 9.75024V6.75024C8.25 5.75568 8.64509 4.80186 9.34835 4.09859C10.0516 3.39533 11.0054 3.00024 12 3.00024C12.9946 3.00024 13.9484 3.39533 14.6517 4.09859C15.3549 4.80186 15.75 5.75568 15.75 6.75024V9.75024" stroke="white" stroke-width="1.5" stroke-linecap="round" stroke-linejoin="round"/>
</svg>
