<svg width="40" height="40" viewBox="0 0 40 40" fill="none" xmlns="http://www.w3.org/2000/svg">
<path d="M20 12.5V20" stroke="white" stroke-width="1.5" stroke-linecap="round" stroke-linejoin="round"/>
<path d="M26.4952 23.75L20 20" stroke="white" stroke-width="1.5" stroke-linecap="round" stroke-linejoin="round"/>
<path d="M28.7761 15.5806H35.0261V9.33057" stroke="white" stroke-width="1.5" stroke-linecap="round" stroke-linejoin="round"/>
<path d="M29.7227 29.7227C27.7997 31.6457 25.3497 32.9553 22.6825 33.4858C20.0153 34.0164 17.2506 33.7441 14.7381 32.7033C12.2256 31.6626 10.0782 29.9003 8.56729 27.6391C7.05642 25.3779 6.25 22.7195 6.25 20C6.25 17.2805 7.05642 14.6221 8.56729 12.3609C10.0782 10.0997 12.2256 8.33737 14.7381 7.29666C17.2506 6.25596 20.0153 5.98366 22.6825 6.51421C25.3497 7.04476 27.7997 8.35432 29.7227 10.2773L35.026 15.5806" stroke="white" stroke-width="1.5" stroke-linecap="round" stroke-linejoin="round"/>
</svg>
