<svg width="25" height="25" viewBox="0 0 25 25" fill="none" xmlns="http://www.w3.org/2000/svg">
<path d="M23.9169 9.43826L16.5402 8.31183L13.2349 1.26122C13.163 1.14054 13.063 1.04105 12.9445 0.972088C12.826 0.903123 12.6928 0.866943 12.5573 0.866943C12.4219 0.866943 12.2887 0.903123 12.1702 0.972088C12.0516 1.04105 11.9517 1.14054 11.8798 1.26122L8.57448 8.32146L1.20086 9.43826C1.06728 9.45204 0.940216 9.50563 0.834606 9.59273C0.728996 9.67983 0.649226 9.79683 0.604673 9.92996C0.560119 10.0631 0.552632 10.2068 0.583093 10.3443C0.613554 10.4817 0.680696 10.6072 0.776629 10.7059L6.13289 16.2097L4.86631 23.9823C4.8501 24.1256 4.87185 24.2708 4.92917 24.4019C4.98649 24.533 5.07714 24.6449 5.19112 24.7253C5.3051 24.8056 5.43798 24.8513 5.57508 24.8572C5.71219 24.8632 5.84819 24.8292 5.96808 24.759L12.5573 21.1133L19.1436 24.7622C19.2634 24.8324 19.3994 24.8664 19.5366 24.8604C19.6737 24.8545 19.8065 24.8088 19.9205 24.7285C20.0345 24.6481 20.1251 24.5362 20.1825 24.4051C20.2398 24.274 20.2615 24.1288 20.2453 23.9855L18.9818 16.2097L24.3381 10.7059C24.434 10.6072 24.5011 10.4817 24.5316 10.3443C24.5621 10.2068 24.5546 10.0631 24.51 9.92996C24.4655 9.79683 24.3857 9.67983 24.2801 9.59273C24.1745 9.50563 24.0474 9.45204 23.9138 9.43826H23.9169Z" fill="#E0E0E0"/>
</svg>
