<svg width="49" height="49" viewBox="0 0 49 49" fill="none" xmlns="http://www.w3.org/2000/svg">
<path d="M20.8487 27.9133H8.1065C7.70892 27.9133 7.32763 27.7553 7.04649 27.4741C6.76536 27.1928 6.60742 26.8114 6.60742 26.4137V14.4166C6.60742 14.0189 6.76536 13.6375 7.04649 13.3562C7.32763 13.075 7.70892 12.917 8.1065 12.917H19.3496C19.7472 12.917 20.1285 13.075 20.4096 13.3562C20.6908 13.6375 20.8487 14.0189 20.8487 14.4166V30.9126C20.8487 32.9012 20.059 34.8084 18.6533 36.2146C17.2477 37.6208 15.3412 38.4107 13.3533 38.4107" stroke="#FF9F0D" stroke-width="1.5" stroke-linecap="round" stroke-linejoin="round"/>
<path d="M42.5853 27.9133H29.8431C29.4455 27.9133 29.0642 27.7553 28.7831 27.4741C28.5019 27.1928 28.344 26.8114 28.344 26.4137V14.4166C28.344 14.0189 28.5019 13.6375 28.7831 13.3562C29.0642 13.075 29.4455 12.917 29.8431 12.917H41.0862C41.4838 12.917 41.8651 13.075 42.1462 13.3562C42.4273 13.6375 42.5853 14.0189 42.5853 14.4166V30.9126C42.5853 32.9012 41.7956 34.8084 40.3899 36.2146C38.9843 37.6208 37.0778 38.4107 35.0899 38.4107" stroke="#FF9F0D" stroke-width="1.5" stroke-linecap="round" stroke-linejoin="round"/>
</svg>
