<svg width="25" height="25" viewBox="0 0 25 25" fill="none" xmlns="http://www.w3.org/2000/svg">
<path d="M23.9951 9.43826L16.6184 8.31183L13.313 1.26122C13.2411 1.14054 13.1412 1.04105 13.0227 0.972088C12.9042 0.903123 12.7709 0.866943 12.6355 0.866943C12.5 0.866943 12.3668 0.903123 12.2483 0.972088C12.1298 1.04105 12.0299 1.14054 11.958 1.26122L8.65263 8.32146L1.27898 9.43826C1.1454 9.45204 1.01834 9.50563 0.912732 9.59273C0.807122 9.67983 0.727352 9.79683 0.682798 9.92996C0.638244 10.0631 0.630757 10.2068 0.661218 10.3443C0.691679 10.4817 0.758822 10.6072 0.854754 10.7059L6.21103 16.2097L4.94444 23.9823C4.92823 24.1256 4.94999 24.2708 5.00731 24.4019C5.06462 24.533 5.15528 24.6449 5.26926 24.7253C5.38324 24.8056 5.51612 24.8513 5.65322 24.8572C5.79033 24.8632 5.92633 24.8292 6.04622 24.759L12.6355 21.1133L19.2217 24.7622C19.3416 24.8324 19.4776 24.8664 19.6147 24.8604C19.7518 24.8545 19.8847 24.8088 19.9987 24.7285C20.1127 24.6481 20.2033 24.5362 20.2606 24.4051C20.318 24.274 20.3397 24.1288 20.3235 23.9855L19.06 16.2097L24.4162 10.7059C24.5122 10.6072 24.5793 10.4817 24.6098 10.3443C24.6402 10.2068 24.6328 10.0631 24.5882 9.92996C24.5436 9.79683 24.4639 9.67983 24.3583 9.59273C24.2527 9.50563 24.1256 9.45204 23.992 9.43826H23.9951Z" fill="#FF9F0D"/>
</svg>
